<svg width="149" height="40" viewBox="0 0 149 40" fill="none" xmlns="http://www.w3.org/2000/svg">
<path d="M54.7956 16.1425C54.7956 16.6313 54.7025 17.1258 54.5164 17.6262C54.3302 18.1207 54.0305 18.5658 53.6175 18.9615C53.2102 19.3513 52.672 19.6713 52.0029 19.9215C51.3396 20.1658 50.5367 20.288 49.5942 20.288C48.6924 20.288 47.8429 20.1833 47.0458 19.9738C46.2487 19.7644 45.5622 19.5229 44.9862 19.2495C44.9687 18.9353 44.9629 18.6065 44.9687 18.2633C44.9804 17.9142 44.9949 17.5738 45.0124 17.2422C45.0356 16.9047 45.0647 16.5818 45.0996 16.2735C45.1404 15.9593 45.184 15.6742 45.2305 15.4182H47.1069L47.4473 17.6785C47.4705 17.8124 47.5084 17.9345 47.5607 18.0451C47.6131 18.1556 47.6975 18.2575 47.8138 18.3505C47.9884 18.5076 48.2415 18.6589 48.5731 18.8044C48.9047 18.9498 49.2713 19.0225 49.6727 19.0225C50.2487 19.0225 50.6967 18.8625 51.0167 18.5425C51.3425 18.2225 51.5055 17.8036 51.5055 17.2858C51.5055 16.9193 51.4269 16.5935 51.2698 16.3084C51.1185 16.0233 50.9091 15.7644 50.6415 15.5316C50.3796 15.2989 50.0684 15.0807 49.7076 14.8771C49.3527 14.6676 48.9775 14.4611 48.5818 14.2575C48.128 14.0189 47.6887 13.7775 47.264 13.5331C46.8393 13.2829 46.4669 13.0036 46.1469 12.6953C45.8269 12.3811 45.568 12.0175 45.3702 11.6044C45.1782 11.1855 45.0822 10.6909 45.0822 10.1207C45.0822 9.55055 45.184 9.02109 45.3876 8.53236C45.5971 8.03782 45.9055 7.61309 46.3127 7.25818C46.7258 6.89746 47.2436 6.61527 47.8662 6.41164C48.4887 6.208 49.2131 6.10618 50.0393 6.10618C50.7316 6.10618 51.4327 6.17309 52.1425 6.30691C52.8524 6.44073 53.4691 6.61527 53.9927 6.83055C54.0393 7.40655 54.0422 8.01164 54.0015 8.64582C53.9665 9.27418 53.9025 9.86764 53.8095 10.4262H51.9855L51.6189 8.44509C51.584 8.27636 51.5375 8.13673 51.4793 8.02618C51.4269 7.91564 51.3484 7.82255 51.2436 7.74691C51.0865 7.63055 50.88 7.53746 50.624 7.46764C50.3738 7.39782 50.1236 7.36291 49.8735 7.36291C49.3498 7.36291 48.9396 7.51127 48.6429 7.808C48.352 8.09891 48.2065 8.48291 48.2065 8.96C48.2065 9.29164 48.2735 9.58255 48.4073 9.83273C48.5411 10.0829 48.7302 10.3127 48.9745 10.5222C49.2247 10.7316 49.5302 10.9353 49.8909 11.1331C50.2516 11.3309 50.656 11.5462 51.104 11.7789C51.6044 12.0349 52.0785 12.3055 52.5265 12.5905C52.9745 12.8756 53.3644 13.1898 53.696 13.5331C54.0335 13.8764 54.3011 14.2633 54.4989 14.6938C54.6967 15.1185 54.7956 15.6015 54.7956 16.1425ZM60.6624 10.2167V18.0887C60.6624 18.2225 60.6973 18.3331 60.7671 18.4204C60.8428 18.5018 60.9446 18.5542 61.0726 18.5775L62.0151 18.752V20H56.1591V18.752L57.1017 18.5775C57.2297 18.5542 57.3286 18.5018 57.3984 18.4204C57.474 18.3331 57.5118 18.2225 57.5118 18.0887V12.3375C57.5118 12.2095 57.4798 12.0989 57.4158 12.0058C57.3518 11.9127 57.2558 11.8545 57.1278 11.8313L56.0631 11.6131V10.3302C56.3773 10.2487 56.7118 10.176 57.0668 10.112C57.4275 10.048 57.7882 9.99564 58.1489 9.95491C58.5155 9.91418 58.8762 9.88509 59.2311 9.86764C59.5918 9.84436 59.9293 9.83273 60.2435 9.83273L60.6624 10.2167ZM60.6449 7.08364C60.6449 7.56655 60.4908 7.95345 60.1824 8.24436C59.874 8.52945 59.4609 8.672 58.9431 8.672C58.4195 8.672 58.0006 8.52945 57.6864 8.24436C57.378 7.95345 57.2238 7.56655 57.2238 7.08364C57.2238 6.61236 57.378 6.23709 57.6864 5.95782C58.0006 5.67273 58.4195 5.53018 58.9431 5.53018C59.4609 5.53018 59.874 5.67273 60.1824 5.95782C60.4908 6.23709 60.6449 6.61236 60.6449 7.08364ZM64.1995 17.0764V11.7265L62.8555 11.4822V10.3389L63.9464 10.112C64.1035 10.0829 64.2199 10.0305 64.2955 9.95491C64.3769 9.87927 64.4439 9.76873 64.4962 9.62327L65.4649 6.86545H67.2104L67.3239 10.0684H70.0555V11.6829H67.3588V16.3695C67.3588 17.0327 67.4577 17.4895 67.6555 17.7396C67.8533 17.9898 68.1471 18.1149 68.5369 18.1149C68.7697 18.1149 69.0169 18.0742 69.2788 17.9927C69.5464 17.9055 69.7966 17.7629 70.0293 17.5651L70.6402 18.2545C70.3435 18.9004 69.8809 19.3775 69.2526 19.6858C68.63 19.9942 67.9173 20.1484 67.1144 20.1484C66.2184 20.1484 65.5086 19.9331 64.9849 19.5025C64.4613 19.072 64.1995 18.2633 64.1995 17.0764ZM76.1558 11.1069C75.766 11.1069 75.4431 11.2785 75.1871 11.6218C74.9369 11.9593 74.7769 12.5644 74.7071 13.4371H77.4737C77.4795 13.3847 77.4824 13.3265 77.4824 13.2625C77.4824 13.1927 77.4824 13.1171 77.4824 13.0356C77.4824 12.4771 77.3747 12.0175 77.1595 11.6567C76.95 11.2902 76.6155 11.1069 76.1558 11.1069ZM80.2751 17.8269C80.0424 18.6065 79.5537 19.2029 78.8089 19.616C78.0642 20.0233 77.1711 20.2269 76.1297 20.2269C75.3267 20.2269 74.6286 20.1076 74.0351 19.8691C73.4417 19.6305 72.9529 19.2902 72.5689 18.848C72.1849 18.4058 71.8998 17.8676 71.7137 17.2335C71.5275 16.5993 71.4344 15.8924 71.4344 15.1127C71.4344 13.3905 71.8649 12.0785 72.726 11.1767C73.5871 10.2691 74.8031 9.81527 76.374 9.81527C77.0664 9.81527 77.6657 9.89964 78.1718 10.0684C78.678 10.2371 79.0911 10.4727 79.4111 10.7753C79.7311 11.072 79.9667 11.4298 80.118 11.8487C80.2751 12.2618 80.3537 12.7098 80.3537 13.1927C80.3537 13.4138 80.3391 13.6553 80.31 13.9171C80.2809 14.1731 80.246 14.4029 80.2053 14.6065H74.6635C74.6693 15.8865 74.8467 16.8233 75.1958 17.4167C75.5449 18.0044 76.1762 18.2982 77.0897 18.2982C77.5667 18.2982 78.0293 18.2167 78.4773 18.0538C78.9311 17.8909 79.3035 17.6465 79.5944 17.3207L80.2751 17.8269ZM90.4056 14.1789L86.6529 14.0742V18.0451C86.6529 18.1556 86.6878 18.2516 86.7576 18.3331C86.8332 18.4145 86.9292 18.4611 87.0456 18.4727L89.2798 18.7433V20H81.5736V18.7433L82.9612 18.4815C83.0718 18.4582 83.162 18.4058 83.2318 18.3244C83.3016 18.2429 83.3365 18.1469 83.3365 18.0364V8.44509C83.3365 8.31127 83.3016 8.20364 83.2318 8.12218C83.1678 8.03491 83.0689 7.97673 82.9351 7.94764L81.5736 7.68582V6.368H92.0638C92.1394 6.97891 92.1801 7.59564 92.186 8.21818C92.1918 8.83491 92.1685 9.46036 92.1161 10.0945H90.5627L90.0914 8.48C90.0507 8.32873 89.9867 8.20945 89.8994 8.12218C89.8121 8.03491 89.7045 7.96509 89.5765 7.91273C89.4311 7.85455 89.2245 7.808 88.9569 7.77309C88.6892 7.73818 88.4129 7.72073 88.1278 7.72073H86.6529V12.5207L90.4056 12.3811V14.1789ZM93.2694 15.1302C93.2694 14.1585 93.4003 13.3324 93.6621 12.6516C93.9298 11.9709 94.2934 11.4211 94.753 11.0022C95.2127 10.5833 95.7596 10.2807 96.3938 10.0945C97.028 9.90255 97.7087 9.80655 98.436 9.80655C99.9603 9.80655 101.156 10.2225 102.023 11.0545C102.89 11.8865 103.323 13.1724 103.323 14.912C103.323 15.8895 103.189 16.7185 102.922 17.3993C102.66 18.08 102.299 18.6298 101.84 19.0487C101.38 19.4618 100.833 19.7615 100.199 19.9476C99.5705 20.1338 98.8898 20.2269 98.1567 20.2269C96.6381 20.2269 95.4425 19.8109 94.5698 18.9789C93.7029 18.1469 93.2694 16.864 93.2694 15.1302ZM99.9283 15.1476C99.9283 13.6873 99.809 12.6516 99.5705 12.0407C99.3378 11.4298 98.9014 11.1244 98.2614 11.1244C97.732 11.1244 97.3334 11.4007 97.0658 11.9535C96.804 12.5004 96.673 13.4807 96.673 14.8945C96.673 16.3549 96.7894 17.3905 97.0221 18.0015C97.2607 18.6124 97.7 18.9178 98.34 18.9178C98.8694 18.9178 99.265 18.6415 99.5269 18.0887C99.7945 17.536 99.9283 16.5556 99.9283 15.1476ZM111.151 18.7607V20H104.745V18.752L105.688 18.5775C105.816 18.5542 105.915 18.5018 105.984 18.4204C106.06 18.3331 106.098 18.2225 106.098 18.0887V12.3462C106.098 12.2124 106.066 12.0989 106.002 12.0058C105.938 11.9127 105.842 11.8545 105.714 11.8313L104.649 11.6131V10.3302C105.208 10.1673 105.81 10.0451 106.456 9.96364C107.101 9.87636 107.701 9.82982 108.253 9.824L108.742 10.208L109.074 11.9447C109.464 11.2815 109.915 10.7607 110.427 10.3825C110.939 9.99855 111.474 9.80655 112.032 9.80655C112.23 9.80655 112.475 9.83564 112.765 9.89382C113.056 9.94618 113.275 10.0102 113.42 10.0858C113.455 10.336 113.475 10.6182 113.481 10.9324C113.487 11.2407 113.478 11.5636 113.455 11.9011C113.432 12.2327 113.397 12.5731 113.35 12.9222C113.304 13.2713 113.243 13.6087 113.167 13.9345H111.788L111.483 12.9135C111.413 12.6982 111.325 12.5585 111.221 12.4945C111.122 12.4305 110.973 12.3985 110.776 12.3985C110.572 12.3927 110.333 12.4364 110.06 12.5295C109.787 12.6167 109.516 12.7709 109.248 12.992V18.0887C109.248 18.2284 109.283 18.3418 109.353 18.4291C109.429 18.5105 109.536 18.56 109.676 18.5775L111.151 18.7607ZM123.151 20H115.593V18.752L117.251 18.4204C117.385 18.3971 117.487 18.3476 117.556 18.272C117.626 18.1905 117.661 18.0829 117.661 17.9491V14.6589L114.057 8.31418C113.999 8.21527 113.929 8.13673 113.847 8.07855C113.772 8.02036 113.679 7.97964 113.568 7.95636L112.486 7.68582V6.368H119.127V7.68582L117.757 8.03491L120.192 12.7476L122.461 8.02618L120.934 7.68582V6.368H125.804V7.68582L124.8 7.93891C124.689 7.96218 124.593 8.00291 124.512 8.06109C124.431 8.11345 124.364 8.192 124.311 8.29673L121.082 14.6589V17.9491C121.082 18.0829 121.117 18.1905 121.187 18.272C121.257 18.3476 121.359 18.3971 121.492 18.4204L123.151 18.752V20ZM125.496 15.1302C125.496 14.1585 125.627 13.3324 125.889 12.6516C126.156 11.9709 126.52 11.4211 126.98 11.0022C127.439 10.5833 127.986 10.2807 128.62 10.0945C129.255 9.90255 129.935 9.80655 130.663 9.80655C132.187 9.80655 133.383 10.2225 134.249 11.0545C135.116 11.8865 135.55 13.1724 135.55 14.912C135.55 15.8895 135.416 16.7185 135.148 17.3993C134.887 18.08 134.526 18.6298 134.066 19.0487C133.607 19.4618 133.06 19.7615 132.425 19.9476C131.797 20.1338 131.116 20.2269 130.383 20.2269C128.865 20.2269 127.669 19.8109 126.796 18.9789C125.929 18.1469 125.496 16.864 125.496 15.1302ZM132.155 15.1476C132.155 13.6873 132.036 12.6516 131.797 12.0407C131.564 11.4298 131.128 11.1244 130.488 11.1244C129.959 11.1244 129.56 11.4007 129.292 11.9535C129.031 12.5004 128.9 13.4807 128.9 14.8945C128.9 16.3549 129.016 17.3905 129.249 18.0015C129.487 18.6124 129.927 18.9178 130.567 18.9178C131.096 18.9178 131.492 18.6415 131.753 18.0887C132.021 17.536 132.155 16.5556 132.155 15.1476ZM146.345 20.1658C145.839 20.1658 145.411 20.0727 145.062 19.8865C144.713 19.6945 144.442 19.4007 144.25 19.0051C143.884 19.3891 143.456 19.6858 142.967 19.8953C142.484 20.0989 141.879 20.2007 141.152 20.2007C140.116 20.2007 139.337 19.9215 138.813 19.3629C138.289 18.7985 138.028 17.9345 138.028 16.7709V12.3113C138.028 12.1833 137.996 12.0756 137.932 11.9884C137.868 11.8953 137.772 11.8342 137.644 11.8051L136.71 11.5695V10.2778C137.012 10.208 137.335 10.144 137.679 10.0858C138.028 10.0276 138.377 9.98109 138.726 9.94618C139.081 9.90545 139.433 9.87636 139.782 9.85891C140.131 9.84145 140.457 9.83273 140.759 9.83273L141.178 10.2167V16.3607C141.178 17.1869 141.292 17.7484 141.519 18.0451C141.745 18.336 142.097 18.4815 142.575 18.4815C142.813 18.4815 143.052 18.4465 143.29 18.3767C143.529 18.3011 143.764 18.1964 143.997 18.0625V12.3025C143.997 12.1745 143.965 12.064 143.901 11.9709C143.837 11.8778 143.741 11.8167 143.613 11.7876L142.618 11.552V10.2604C142.927 10.1905 143.255 10.1295 143.604 10.0771C143.959 10.0189 144.314 9.97236 144.669 9.93745C145.03 9.90255 145.385 9.87636 145.734 9.85891C146.089 9.84145 146.42 9.83273 146.729 9.83273L147.148 10.2167V18.0102C147.148 18.1964 147.185 18.3273 147.261 18.4029C147.343 18.4785 147.456 18.5251 147.601 18.5425L148.457 18.6473V19.8255C148.241 19.8895 147.93 19.9622 147.523 20.0436C147.116 20.1251 146.723 20.1658 146.345 20.1658Z" fill="#0B8E6A"/>
<g clip-path="url(#clip0_101_18)">
<path d="M24.8001 6.02343C23.484 3.82975 21.8685 1.83072 20 0.0833282C18.1315 1.83072 16.5159 3.82975 15.1999 6.02343H24.8001Z" fill="#0B8E6A"/>
<path d="M14.4574 7.35678C13.5648 9.05437 12.8555 10.8425 12.3408 12.6901H27.6592C27.1445 10.8425 26.4352 9.05437 25.5426 7.35678H14.4574Z" fill="#0B8E6A"/>
<path d="M29.0452 12.6901H38.6055C37.8441 10.7604 36.7868 8.96127 35.472 7.35678H27.0407C27.8857 9.06284 28.5573 10.8496 29.0452 12.6901Z" fill="#0B8E6A"/>
<path d="M27.0407 32.6901H35.4739C36.7887 31.0856 37.846 29.2861 38.6074 27.3568H29.0452C28.5573 29.1969 27.8857 30.9837 27.0407 32.6901Z" fill="#0B8E6A"/>
<path d="M12.9593 7.35678H4.52474C3.20964 8.96095 2.15267 10.7604 1.39128 12.6901H10.9548C11.4427 10.8496 12.1143 9.06284 12.9593 7.35678Z" fill="#0B8E6A"/>
<path d="M34.2747 6.02344C30.9792 2.65333 26.5957 0.560552 21.9033 0.115891C23.6273 1.88672 25.1162 3.8724 26.3333 6.02344H34.2747Z" fill="#0B8E6A"/>
<path d="M5.7233 34.0234C9.01953 37.3936 13.4033 39.4867 18.0967 39.9307C16.3727 38.1598 14.8838 36.1745 13.6667 34.0234H5.7233Z" fill="#0B8E6A"/>
<path d="M21.9033 39.9307C26.5957 39.4863 30.9792 37.3932 34.2747 34.0234H26.3333C25.1162 36.1745 23.6273 38.1598 21.9033 39.9307Z" fill="#0B8E6A"/>
<path d="M10.9547 27.3568H1.39388C2.15527 29.2861 3.21256 31.0856 4.52734 32.6901H12.9593C12.1143 30.9837 11.4427 29.1969 10.9547 27.3568Z" fill="#0B8E6A"/>
<path d="M18.0967 0.115891C13.4033 0.559901 9.01953 2.653 5.7233 6.02344H13.6667C14.8838 3.8724 16.3727 1.88672 18.0967 0.115891Z" fill="#0B8E6A"/>
<path d="M25.5426 32.6901C26.4352 30.9922 27.1445 29.2044 27.6592 27.3568H12.3408C12.8555 29.2044 13.5648 30.9922 14.4574 32.6901H25.5426Z" fill="#0B8E6A"/>
<path d="M15.1999 34.0234C16.5159 36.2168 18.1315 38.2161 20 39.9632C21.8685 38.2161 23.484 36.2168 24.8001 34.0234H15.1999Z" fill="#0B8E6A"/>
<path d="M39.0828 14.0234H0.917465C-0.305517 17.9297 -0.305517 22.1169 0.917465 26.0234H39.0828C40.3058 22.1169 40.3058 17.9297 39.0828 14.0234ZM10.6434 23.5319C10.5653 23.819 10.3065 24.0195 10.0089 24.0234H10.0001C9.70555 24.0234 9.44611 23.8301 9.36148 23.5479L8.00015 19.0101L6.63882 23.5479C6.55418 23.8301 6.29474 24.0234 6.00015 24.0234H5.99136C5.69416 24.0195 5.43504 23.819 5.35692 23.5319L3.35692 16.1986L4.64338 15.848L6.03075 20.9346L7.36408 16.4987C7.44872 16.2165 7.70816 16.0231 8.00275 16.0231C8.29735 16.0231 8.55711 16.2165 8.64142 16.4987L9.97476 20.9346L11.3621 15.848L12.6489 16.1986L10.6434 23.5319ZM22.6434 23.5319C22.5653 23.819 22.3065 24.0195 22.0089 24.0234H22.0001C21.7056 24.0234 21.4461 23.8301 21.3615 23.5479L20.0001 19.0101L18.6388 23.5479C18.5542 23.8301 18.2947 24.0234 18.0001 24.0234H17.9914C17.6942 24.0195 17.435 23.819 17.3569 23.5319L15.3569 16.1986L16.6434 15.848L18.0307 20.9346L19.3641 16.4987C19.4487 16.2165 19.7082 16.0231 20.0028 16.0231C20.2973 16.0231 20.5571 16.2165 20.6414 16.4987L21.9748 20.9346L23.3621 15.848L24.6489 16.1986L22.6434 23.5319ZM34.6434 23.5319C34.5653 23.819 34.3065 24.0195 34.0089 24.0234H34.0001C33.7056 24.0234 33.4461 23.8301 33.3615 23.5479L32.0001 19.0101L30.6388 23.5479C30.5542 23.8301 30.2947 24.0234 30.0001 24.0234H29.9914C29.6942 24.0195 29.435 23.819 29.3569 23.5319L27.3569 16.1986L28.6434 15.848L30.0307 20.9346L31.3641 16.4987C31.4487 16.2165 31.7082 16.0231 32.0028 16.0231C32.2973 16.0231 32.5571 16.2165 32.6414 16.4987L33.9748 20.9346L35.3621 15.848L36.6489 16.1986L34.6434 23.5319Z" fill="#0B8E6A"/>
</g>
<path d="M45.9462 33.0698L44.5935 28.9593C44.5731 28.9011 44.5455 28.8575 44.5105 28.8284C44.4756 28.7964 44.4276 28.7702 44.3665 28.7498L44.048 28.6495V28.0342H46.7011V28.6625L46.0945 28.7978L46.8669 31.5731L47.8007 28.0342H49.0662L50.048 31.5687L50.7855 28.7978L50.1484 28.6625V28.0342H52.1251V28.6495L51.8065 28.7498C51.7484 28.7673 51.7004 28.792 51.6625 28.824C51.6247 28.856 51.5956 28.9025 51.5753 28.9636L50.3273 33.0698H49.1055L48.0887 29.7578L47.1942 33.0698H45.9462ZM54.8162 28.5535C54.6213 28.5535 54.4598 28.6393 54.3318 28.8109C54.2067 28.9796 54.1267 29.2822 54.0918 29.7185H55.4751C55.478 29.6924 55.4795 29.6633 55.4795 29.6313C55.4795 29.5964 55.4795 29.5585 55.4795 29.5178C55.4795 29.2385 55.4257 29.0087 55.318 28.8284C55.2133 28.6451 55.046 28.5535 54.8162 28.5535ZM56.8758 31.9135C56.7595 32.3033 56.5151 32.6015 56.1427 32.808C55.7704 33.0116 55.3238 33.1135 54.8031 33.1135C54.4017 33.1135 54.0526 33.0538 53.7558 32.9345C53.4591 32.8153 53.2147 32.6451 53.0227 32.424C52.8307 32.2029 52.6882 31.9338 52.5951 31.6167C52.502 31.2996 52.4555 30.9462 52.4555 30.5564C52.4555 29.6953 52.6707 29.0393 53.1013 28.5884C53.5318 28.1345 54.1398 27.9076 54.9253 27.9076C55.2715 27.9076 55.5711 27.9498 55.8242 28.0342C56.0773 28.1185 56.2838 28.2364 56.4438 28.3876C56.6038 28.536 56.7217 28.7149 56.7973 28.9244C56.8758 29.1309 56.9151 29.3549 56.9151 29.5964C56.9151 29.7069 56.9078 29.8276 56.8933 29.9585C56.8787 30.0865 56.8613 30.2015 56.8409 30.3033H54.07C54.0729 30.9433 54.1617 31.4116 54.3362 31.7084C54.5107 32.0022 54.8264 32.1491 55.2831 32.1491C55.5217 32.1491 55.7529 32.1084 55.9769 32.0269C56.2038 31.9455 56.39 31.8233 56.5355 31.6604L56.8758 31.9135ZM59.9056 33.1004C59.7136 33.1004 59.5187 33.0902 59.3209 33.0698C59.126 33.0495 58.9398 33.0233 58.7624 32.9913C58.5878 32.9564 58.4264 32.9185 58.278 32.8778C58.1325 32.8371 58.0133 32.7964 57.9202 32.7556V26.376C57.9202 26.3091 57.9027 26.2553 57.8678 26.2145C57.8329 26.1709 57.7834 26.1433 57.7194 26.1316L57.1522 26.04V25.416C57.3064 25.3753 57.4751 25.3389 57.6584 25.3069C57.8445 25.2749 58.0322 25.2473 58.2213 25.224C58.4104 25.1978 58.5965 25.1789 58.7798 25.1673C58.966 25.1527 59.1347 25.1455 59.286 25.1455L59.4954 25.3375V28.4444C59.6671 28.2698 59.8693 28.136 60.102 28.0429C60.3347 27.9498 60.5834 27.9033 60.8482 27.9033C61.11 27.9033 61.3529 27.9498 61.5769 28.0429C61.8038 28.136 62.0002 28.2785 62.166 28.4705C62.3318 28.6625 62.4613 28.9084 62.5544 29.208C62.6504 29.5047 62.6984 29.8567 62.6984 30.264C62.6984 31.1571 62.4584 31.8538 61.9784 32.3542C61.5013 32.8516 60.8104 33.1004 59.9056 33.1004ZM60.0147 32.4895C60.3434 32.4895 60.5936 32.3367 60.7653 32.0313C60.9369 31.7229 61.0271 31.2313 61.0358 30.5564C61.0387 30.2276 61.0213 29.9527 60.9834 29.7316C60.9456 29.5076 60.8874 29.3287 60.8089 29.1949C60.7333 29.0611 60.6373 28.9665 60.5209 28.9113C60.4074 28.856 60.2765 28.8284 60.1282 28.8284C60.0234 28.8284 59.9158 28.8415 59.8053 28.8676C59.6976 28.8938 59.5944 28.9345 59.4954 28.9898V32.3629C59.5653 32.4007 59.6438 32.4313 59.7311 32.4545C59.8184 32.4778 59.9129 32.4895 60.0147 32.4895ZM63.5216 32.7644C63.4925 32.5316 63.4809 32.2902 63.4867 32.04C63.4954 31.7898 63.5158 31.5542 63.5478 31.3331H64.3332L64.5165 31.9789C64.5456 32.0691 64.5718 32.1389 64.5951 32.1884C64.6212 32.2378 64.662 32.2829 64.7172 32.3236C64.7812 32.3673 64.87 32.4124 64.9834 32.4589C65.0998 32.5055 65.2321 32.5287 65.3805 32.5287C65.5987 32.5287 65.766 32.472 65.8823 32.3585C65.9987 32.2422 66.0569 32.1098 66.0569 31.9615C66.0569 31.8422 66.022 31.7404 65.9521 31.656C65.8823 31.5687 65.7878 31.4887 65.6685 31.416C65.5492 31.3404 65.4067 31.2662 65.2409 31.1935C65.078 31.1207 64.9034 31.0393 64.7172 30.9491C64.3565 30.7716 64.0627 30.5724 63.8358 30.3513C63.6118 30.1273 63.4998 29.8247 63.4998 29.4436C63.4998 28.9956 63.67 28.6291 64.0103 28.344C64.3507 28.056 64.8772 27.912 65.59 27.912C65.878 27.912 66.1791 27.9396 66.4932 27.9949C66.8103 28.0473 67.0823 28.1185 67.3092 28.2087C67.3296 28.4182 67.334 28.6436 67.3223 28.8851C67.3107 29.1236 67.2831 29.352 67.2394 29.5702L66.5107 29.5658L66.3187 28.9593C66.2896 28.8749 66.2591 28.8109 66.2271 28.7673C66.198 28.7207 66.1543 28.6785 66.0961 28.6407C66.0234 28.5942 65.9449 28.5607 65.8605 28.5404C65.7761 28.52 65.6889 28.5084 65.5987 28.5055C65.4096 28.5055 65.2554 28.5535 65.1361 28.6495C65.0198 28.7455 64.9616 28.8764 64.9616 29.0422C64.9616 29.1527 64.9907 29.2502 65.0489 29.3345C65.1071 29.416 65.1841 29.4902 65.2801 29.5571C65.3761 29.6211 65.4881 29.6822 65.6161 29.7404C65.7471 29.7956 65.8823 29.8538 66.022 29.9149C66.2314 30.0051 66.4336 30.0996 66.6285 30.1985C66.8234 30.2975 66.9936 30.4109 67.1391 30.5389C67.2874 30.6669 67.4052 30.8167 67.4925 30.9884C67.5798 31.1571 67.6234 31.3578 67.6234 31.5905C67.6234 31.8495 67.5681 32.0764 67.4576 32.2713C67.3471 32.4662 67.1943 32.6276 66.9994 32.7556C66.8045 32.8836 66.5718 32.9796 66.3012 33.0436C66.0336 33.1076 65.7441 33.1396 65.4329 33.1396C65.0605 33.1396 64.7085 33.1004 64.3769 33.0218C64.0481 32.9462 63.7631 32.8604 63.5216 32.7644ZM70.5421 28.1084V32.0444C70.5421 32.1113 70.5596 32.1665 70.5945 32.2102C70.6323 32.2509 70.6832 32.2771 70.7472 32.2887L71.2185 32.376V33H68.2905V32.376L68.7618 32.2887C68.8258 32.2771 68.8752 32.2509 68.9101 32.2102C68.948 32.1665 68.9669 32.1113 68.9669 32.0444V29.1687C68.9669 29.1047 68.9509 29.0495 68.9189 29.0029C68.8869 28.9564 68.8389 28.9273 68.7749 28.9156L68.2425 28.8065V28.1651C68.3996 28.1244 68.5669 28.088 68.7443 28.056C68.9247 28.024 69.105 27.9978 69.2854 27.9775C69.4687 27.9571 69.649 27.9425 69.8265 27.9338C70.0069 27.9222 70.1756 27.9164 70.3327 27.9164L70.5421 28.1084ZM70.5334 26.5418C70.5334 26.7833 70.4563 26.9767 70.3021 27.1222C70.148 27.2647 69.9414 27.336 69.6825 27.336C69.4207 27.336 69.2112 27.2647 69.0541 27.1222C68.9 26.9767 68.8229 26.7833 68.8229 26.5418C68.8229 26.3062 68.9 26.1185 69.0541 25.9789C69.2112 25.8364 69.4207 25.7651 69.6825 25.7651C69.9414 25.7651 70.148 25.8364 70.3021 25.9789C70.4563 26.1185 70.5334 26.3062 70.5334 26.5418ZM72.3107 31.5382V28.8633L71.6387 28.7411V28.1695L72.1841 28.056C72.2627 28.0415 72.3209 28.0153 72.3587 27.9775C72.3994 27.9396 72.4329 27.8844 72.459 27.8116L72.9434 26.4327H73.8161L73.8729 28.0342H75.2387V28.8415H73.8903V31.1847C73.8903 31.5164 73.9398 31.7447 74.0387 31.8698C74.1376 31.9949 74.2845 32.0575 74.4794 32.0575C74.5958 32.0575 74.7194 32.0371 74.8503 31.9964C74.9841 31.9527 75.1092 31.8815 75.2256 31.7825L75.531 32.1273C75.3827 32.4502 75.1514 32.6887 74.8372 32.8429C74.526 32.9971 74.1696 33.0742 73.7681 33.0742C73.3201 33.0742 72.9652 32.9665 72.7034 32.7513C72.4416 32.536 72.3107 32.1316 72.3107 31.5382ZM78.2889 28.5535C78.0939 28.5535 77.9325 28.6393 77.8045 28.8109C77.6794 28.9796 77.5994 29.2822 77.5645 29.7185H78.9478C78.9507 29.6924 78.9521 29.6633 78.9521 29.6313C78.9521 29.5964 78.9521 29.5585 78.9521 29.5178C78.9521 29.2385 78.8983 29.0087 78.7907 28.8284C78.6859 28.6451 78.5187 28.5535 78.2889 28.5535ZM80.3485 31.9135C80.2321 32.3033 79.9878 32.6015 79.6154 32.808C79.243 33.0116 78.7965 33.1135 78.2758 33.1135C77.8743 33.1135 77.5252 33.0538 77.2285 32.9345C76.9318 32.8153 76.6874 32.6451 76.4954 32.424C76.3034 32.2029 76.1609 31.9338 76.0678 31.6167C75.9747 31.2996 75.9281 30.9462 75.9281 30.5564C75.9281 29.6953 76.1434 29.0393 76.5739 28.5884C77.0045 28.1345 77.6125 27.9076 78.3979 27.9076C78.7441 27.9076 79.0438 27.9498 79.2969 28.0342C79.5499 28.1185 79.7565 28.2364 79.9165 28.3876C80.0765 28.536 80.1943 28.7149 80.2699 28.9244C80.3485 29.1309 80.3878 29.3549 80.3878 29.5964C80.3878 29.7069 80.3805 29.8276 80.3659 29.9585C80.3514 30.0865 80.3339 30.2015 80.3136 30.3033H77.5427C77.5456 30.9433 77.6343 31.4116 77.8089 31.7084C77.9834 32.0022 78.299 32.1491 78.7558 32.1491C78.9943 32.1491 79.2256 32.1084 79.4496 32.0269C79.6765 31.9455 79.8627 31.8233 80.0081 31.6604L80.3485 31.9135ZM85.88 32.2495C85.9964 32.2495 86.1156 32.2349 86.2378 32.2058C86.3629 32.1738 86.4778 32.1302 86.5825 32.0749V28.6844C86.5098 28.6495 86.4269 28.6233 86.3338 28.6058C86.2436 28.5855 86.152 28.5753 86.0589 28.5753C85.9018 28.5753 85.7578 28.6073 85.6269 28.6713C85.4989 28.7324 85.3898 28.8356 85.2996 28.9811C85.2124 29.1265 85.144 29.3215 85.0945 29.5658C85.0451 29.8102 85.0204 30.1142 85.0204 30.4778C85.0175 31.112 85.0902 31.5658 85.2385 31.8393C85.3869 32.1127 85.6007 32.2495 85.88 32.2495ZM87.7564 33.0829C87.5033 33.0829 87.2895 33.0349 87.1149 32.9389C86.9404 32.8429 86.8051 32.6975 86.7091 32.5025C86.5433 32.6858 86.344 32.8313 86.1113 32.9389C85.8815 33.0465 85.6211 33.1004 85.3302 33.1004C85.0451 33.1004 84.7818 33.0524 84.5404 32.9564C84.2989 32.8604 84.0909 32.7135 83.9164 32.5156C83.7418 32.3178 83.6051 32.0647 83.5062 31.7564C83.4073 31.448 83.3578 31.0829 83.3578 30.6611C83.3578 29.768 83.5818 29.0858 84.0298 28.6145C84.4807 28.1404 85.1193 27.9033 85.9455 27.9033C86.0531 27.9033 86.1622 27.9091 86.2727 27.9207C86.3833 27.9324 86.4865 27.9484 86.5825 27.9687V26.3716C86.5825 26.3047 86.5651 26.2509 86.5302 26.2102C86.4953 26.1665 86.4458 26.1389 86.3818 26.1273L85.8102 26.04V25.4247C85.9673 25.384 86.1375 25.3476 86.3207 25.3156C86.504 25.2807 86.6887 25.2516 86.8749 25.2284C87.064 25.2022 87.2502 25.1818 87.4335 25.1673C87.6196 25.1527 87.7913 25.1455 87.9484 25.1455L88.1578 25.3418V32.0051C88.1578 32.0982 88.1767 32.1636 88.2145 32.2015C88.2553 32.2393 88.3105 32.2625 88.3804 32.2713L88.8124 32.3236V32.9127C88.7047 32.9447 88.5491 32.9811 88.3455 33.0218C88.1418 33.0625 87.9455 33.0829 87.7564 33.0829ZM91.7537 28.5535C91.5588 28.5535 91.3973 28.6393 91.2693 28.8109C91.1442 28.9796 91.0642 29.2822 91.0293 29.7185H92.4126C92.4155 29.6924 92.417 29.6633 92.417 29.6313C92.417 29.5964 92.417 29.5585 92.417 29.5178C92.417 29.2385 92.3632 29.0087 92.2555 28.8284C92.1508 28.6451 91.9835 28.5535 91.7537 28.5535ZM93.8133 31.9135C93.697 32.3033 93.4526 32.6015 93.0802 32.808C92.7079 33.0116 92.2613 33.1135 91.7406 33.1135C91.3392 33.1135 90.9901 33.0538 90.6933 32.9345C90.3966 32.8153 90.1522 32.6451 89.9602 32.424C89.7682 32.2029 89.6257 31.9338 89.5326 31.6167C89.4395 31.2996 89.393 30.9462 89.393 30.5564C89.393 29.6953 89.6082 29.0393 90.0388 28.5884C90.4693 28.1345 91.0773 27.9076 91.8628 27.9076C92.209 27.9076 92.5086 27.9498 92.7617 28.0342C93.0148 28.1185 93.2213 28.2364 93.3813 28.3876C93.5413 28.536 93.6592 28.7149 93.7348 28.9244C93.8133 29.1309 93.8526 29.3549 93.8526 29.5964C93.8526 29.7069 93.8453 29.8276 93.8308 29.9585C93.8162 30.0865 93.7988 30.2015 93.7784 30.3033H91.0075C91.0104 30.9433 91.0992 31.4116 91.2737 31.7084C91.4482 32.0022 91.7639 32.1491 92.2206 32.1491C92.4592 32.1491 92.6904 32.1084 92.9144 32.0269C93.1413 31.9455 93.3275 31.8233 93.473 31.6604L93.8133 31.9135ZM96.3043 33.0698L94.6854 28.9593C94.6621 28.904 94.6316 28.8604 94.5937 28.8284C94.5588 28.7964 94.5137 28.7716 94.4585 28.7542L94.1312 28.6495V28.0342H97.0068V28.6625L96.3741 28.7978L97.369 31.7825L98.3552 28.7978L97.7312 28.6625V28.0342H99.6992V28.6495L99.3719 28.7542C99.3166 28.7716 99.2686 28.7964 99.2279 28.8284C99.1872 28.8575 99.1566 28.8996 99.1363 28.9549L97.6745 33.0698H96.3043ZM102.5 28.5535C102.305 28.5535 102.143 28.6393 102.015 28.8109C101.89 28.9796 101.81 29.2822 101.775 29.7185H103.159C103.162 29.6924 103.163 29.6633 103.163 29.6313C103.163 29.5964 103.163 29.5585 103.163 29.5178C103.163 29.2385 103.109 29.0087 103.002 28.8284C102.897 28.6451 102.73 28.5535 102.5 28.5535ZM104.559 31.9135C104.443 32.3033 104.199 32.6015 103.826 32.808C103.454 33.0116 103.007 33.1135 102.487 33.1135C102.085 33.1135 101.736 33.0538 101.439 32.9345C101.143 32.8153 100.898 32.6451 100.706 32.424C100.514 32.2029 100.372 31.9338 100.279 31.6167C100.186 31.2996 100.139 30.9462 100.139 30.5564C100.139 29.6953 100.354 29.0393 100.785 28.5884C101.215 28.1345 101.823 27.9076 102.609 27.9076C102.955 27.9076 103.255 27.9498 103.508 28.0342C103.761 28.1185 103.967 28.2364 104.127 28.3876C104.287 28.536 104.405 28.7149 104.481 28.9244C104.559 29.1309 104.599 29.3549 104.599 29.5964C104.599 29.7069 104.591 29.8276 104.577 29.9585C104.562 30.0865 104.545 30.2015 104.525 30.3033H101.754C101.757 30.9433 101.845 31.4116 102.02 31.7084C102.194 32.0022 102.51 32.1491 102.967 32.1491C103.205 32.1491 103.437 32.1084 103.661 32.0269C103.887 31.9455 104.074 31.8233 104.219 31.6604L104.559 31.9135ZM107.45 25.3418V32.0444C107.45 32.1142 107.467 32.1695 107.502 32.2102C107.537 32.2509 107.588 32.2771 107.655 32.2887L108.178 32.3804V33H105.141V32.376L105.669 32.2887C105.733 32.2771 105.783 32.2509 105.818 32.2102C105.855 32.1695 105.874 32.1156 105.874 32.0487V26.3716C105.874 26.3047 105.857 26.2509 105.822 26.2102C105.787 26.1665 105.738 26.1389 105.674 26.1273L105.102 26.04V25.4247C105.259 25.384 105.429 25.3476 105.612 25.3156C105.796 25.2807 105.98 25.2516 106.167 25.2284C106.356 25.2022 106.542 25.1818 106.725 25.1673C106.911 25.1527 107.083 25.1455 107.24 25.1455L107.45 25.3418ZM108.725 30.5651C108.725 30.0793 108.79 29.6662 108.921 29.3258C109.055 28.9855 109.237 28.7105 109.466 28.5011C109.696 28.2916 109.97 28.1404 110.287 28.0473C110.604 27.9513 110.944 27.9033 111.308 27.9033C112.07 27.9033 112.668 28.1113 113.101 28.5273C113.535 28.9433 113.751 29.5862 113.751 30.456C113.751 30.9447 113.685 31.3593 113.551 31.6996C113.42 32.04 113.239 32.3149 113.01 32.5244C112.78 32.7309 112.506 32.8807 112.189 32.9738C111.875 33.0669 111.535 33.1135 111.168 33.1135C110.409 33.1135 109.811 32.9055 109.375 32.4895C108.941 32.0735 108.725 31.432 108.725 30.5651ZM112.054 30.5738C112.054 29.8436 111.994 29.3258 111.875 29.0204C111.759 28.7149 111.541 28.5622 111.221 28.5622C110.956 28.5622 110.757 28.7004 110.623 28.9767C110.492 29.2502 110.426 29.7404 110.426 30.4473C110.426 31.1775 110.485 31.6953 110.601 32.0007C110.72 32.3062 110.94 32.4589 111.26 32.4589C111.525 32.4589 111.722 32.3207 111.853 32.0444C111.987 31.768 112.054 31.2778 112.054 30.5738ZM117.124 32.4895C117.278 32.4895 117.419 32.4575 117.547 32.3935C117.675 32.3265 117.783 32.2175 117.87 32.0662C117.961 31.9149 118.03 31.7127 118.08 31.4596C118.132 31.2065 118.16 30.8938 118.163 30.5215C118.166 29.9135 118.093 29.48 117.945 29.2211C117.796 28.9593 117.568 28.8284 117.259 28.8284C117.134 28.8284 117.017 28.8429 116.906 28.872C116.795 28.9011 116.699 28.9389 116.618 28.9855V32.3935C116.694 32.4313 116.775 32.4575 116.862 32.472C116.95 32.4836 117.037 32.4895 117.124 32.4895ZM117.504 34.5447V35.1644H114.366V34.5447L114.842 34.4531C114.906 34.4415 114.955 34.4138 114.99 34.3702C115.025 34.3295 115.043 34.2756 115.043 34.2087V29.1731C115.043 29.1091 115.027 29.0538 114.995 29.0073C114.966 28.9607 114.921 28.9316 114.859 28.92L114.318 28.8065V28.1651C114.461 28.1302 114.614 28.0967 114.777 28.0647C114.939 28.0327 115.104 28.0065 115.27 27.9862C115.438 27.9629 115.604 27.9455 115.767 27.9338C115.933 27.9193 116.087 27.912 116.23 27.912L116.448 28.1084L116.535 28.536C116.707 28.3469 116.91 28.1942 117.146 28.0778C117.382 27.9615 117.655 27.9033 117.966 27.9033C118.228 27.9033 118.473 27.9513 118.699 28.0473C118.929 28.1404 119.126 28.2844 119.289 28.4793C119.454 28.6713 119.584 28.9171 119.677 29.2167C119.773 29.5164 119.821 29.8698 119.821 30.2771C119.821 30.7338 119.757 31.1396 119.629 31.4945C119.504 31.8465 119.323 32.1418 119.088 32.3804C118.855 32.616 118.571 32.7949 118.237 32.9171C117.905 33.0393 117.536 33.1004 117.129 33.1004C117.05 33.1004 116.967 33.096 116.88 33.0873C116.795 33.0815 116.708 33.0713 116.618 33.0567V34.2087C116.618 34.2785 116.635 34.3338 116.67 34.3745C116.708 34.4182 116.761 34.4444 116.827 34.4531L117.504 34.5447ZM123.24 32.3804V33H120.521V32.3804L120.997 32.2887C121.061 32.2771 121.11 32.2509 121.145 32.2102C121.18 32.1665 121.197 32.1113 121.197 32.0444V29.1731C121.197 29.1091 121.181 29.0538 121.149 29.0073C121.117 28.9607 121.069 28.9316 121.005 28.92L120.473 28.8109V28.1651C120.778 28.0836 121.1 28.0225 121.437 27.9818C121.775 27.9382 122.09 27.9149 122.384 27.912L122.602 28.1084L122.69 28.5665C122.882 28.3513 123.11 28.1913 123.375 28.0865C123.642 27.9818 123.936 27.9295 124.256 27.9295C124.602 27.9295 124.88 27.9876 125.09 28.104C125.302 28.2204 125.462 28.3891 125.57 28.6102C125.782 28.3775 126.032 28.2058 126.32 28.0953C126.608 27.9847 126.92 27.9295 127.254 27.9295C127.548 27.9295 127.794 27.9731 127.992 28.0604C128.189 28.1447 128.345 28.2684 128.458 28.4313C128.575 28.5942 128.656 28.7964 128.703 29.0378C128.752 29.2764 128.777 29.5469 128.777 29.8495V32.0444C128.777 32.1113 128.794 32.1665 128.829 32.2102C128.864 32.2509 128.914 32.2771 128.978 32.2887L129.458 32.3804V33H126.735V32.3804L127.005 32.2931C127.072 32.2698 127.122 32.2393 127.154 32.2015C127.186 32.1636 127.202 32.1113 127.202 32.0444V30.0196C127.202 29.6065 127.141 29.3098 127.018 29.1295C126.899 28.9491 126.707 28.8589 126.442 28.8589C126.332 28.8589 126.214 28.8764 126.089 28.9113C125.964 28.9433 125.839 28.9956 125.714 29.0684C125.734 29.176 125.749 29.2924 125.757 29.4175C125.769 29.5396 125.775 29.6691 125.775 29.8058V32.0444C125.775 32.1113 125.791 32.1636 125.823 32.2015C125.855 32.2364 125.903 32.2669 125.967 32.2931L126.246 32.3804V33H123.733V32.3804L124.003 32.2931C124.067 32.2698 124.115 32.2393 124.147 32.2015C124.182 32.1636 124.2 32.1113 124.2 32.0444V29.9804C124.2 29.5731 124.141 29.2851 124.025 29.1164C123.912 28.9447 123.724 28.8589 123.462 28.8589C123.354 28.8589 123.24 28.8749 123.117 28.9069C122.998 28.936 122.883 28.9825 122.773 29.0465V32.0444C122.773 32.1113 122.787 32.1636 122.816 32.2015C122.845 32.2393 122.89 32.2684 122.952 32.2887L123.24 32.3804ZM132.359 28.5535C132.164 28.5535 132.003 28.6393 131.875 28.8109C131.75 28.9796 131.67 29.2822 131.635 29.7185H133.018C133.021 29.6924 133.022 29.6633 133.022 29.6313C133.022 29.5964 133.022 29.5585 133.022 29.5178C133.022 29.2385 132.969 29.0087 132.861 28.8284C132.756 28.6451 132.589 28.5535 132.359 28.5535ZM134.419 31.9135C134.302 32.3033 134.058 32.6015 133.686 32.808C133.313 33.0116 132.867 33.1135 132.346 33.1135C131.945 33.1135 131.596 33.0538 131.299 32.9345C131.002 32.8153 130.758 32.6451 130.566 32.424C130.374 32.2029 130.231 31.9338 130.138 31.6167C130.045 31.2996 129.998 30.9462 129.998 30.5564C129.998 29.6953 130.214 29.0393 130.644 28.5884C131.075 28.1345 131.683 27.9076 132.468 27.9076C132.814 27.9076 133.114 27.9498 133.367 28.0342C133.62 28.1185 133.827 28.2364 133.987 28.3876C134.147 28.536 134.265 28.7149 134.34 28.9244C134.419 29.1309 134.458 29.3549 134.458 29.5964C134.458 29.7069 134.451 29.8276 134.436 29.9585C134.422 30.0865 134.404 30.2015 134.384 30.3033H131.613C131.616 30.9433 131.705 31.4116 131.879 31.7084C132.054 32.0022 132.369 32.1491 132.826 32.1491C133.065 32.1491 133.296 32.1084 133.52 32.0269C133.747 31.9455 133.933 31.8233 134.078 31.6604L134.419 31.9135ZM137.898 32.3804V33H135.158V32.3804L135.633 32.2887C135.697 32.2771 135.747 32.2509 135.782 32.2102C135.817 32.1665 135.834 32.1113 135.834 32.0444V29.1687C135.834 29.1047 135.818 29.0495 135.786 29.0029C135.754 28.9564 135.706 28.9273 135.642 28.9156L135.11 28.8065V28.1651C135.415 28.0836 135.737 28.0225 136.074 27.9818C136.412 27.9382 136.727 27.9149 137.021 27.912L137.239 28.1084L137.331 28.584C137.537 28.3658 137.777 28.2029 138.051 28.0953C138.324 27.9847 138.625 27.9295 138.954 27.9295C139.539 27.9295 139.939 28.0938 140.154 28.4225C140.369 28.7484 140.477 29.2095 140.477 29.8058V32.0444C140.477 32.1113 140.494 32.1665 140.529 32.2102C140.564 32.2509 140.614 32.2771 140.678 32.2887L141.153 32.376V33H138.413V32.3804L138.705 32.2931C138.769 32.2698 138.817 32.2393 138.849 32.2015C138.884 32.1636 138.902 32.1113 138.902 32.0444V29.9804C138.902 29.5731 138.842 29.2851 138.723 29.1164C138.604 28.9447 138.414 28.8589 138.156 28.8589C138.036 28.8589 137.913 28.8764 137.785 28.9113C137.657 28.9462 137.532 28.9985 137.409 29.0684V32.0444C137.409 32.1113 137.425 32.1651 137.457 32.2058C137.492 32.2436 137.54 32.2727 137.601 32.2931L137.898 32.3804ZM142.213 31.5382V28.8633L141.541 28.7411V28.1695L142.086 28.056C142.165 28.0415 142.223 28.0153 142.261 27.9775C142.302 27.9396 142.335 27.8844 142.361 27.8116L142.846 26.4327H143.718L143.775 28.0342H145.141V28.8415H143.793V31.1847C143.793 31.5164 143.842 31.7447 143.941 31.8698C144.04 31.9949 144.187 32.0575 144.382 32.0575C144.498 32.0575 144.622 32.0371 144.753 31.9964C144.886 31.9527 145.012 31.8815 145.128 31.7825L145.433 32.1273C145.285 32.4502 145.054 32.6887 144.74 32.8429C144.428 32.9971 144.072 33.0742 143.67 33.0742C143.222 33.0742 142.868 32.9665 142.606 32.7513C142.344 32.536 142.213 32.1316 142.213 31.5382Z" fill="#0B8E6A"/>
<defs>
<clipPath id="clip0_101_18">
<rect width="40" height="40" fill="white"/>
</clipPath>
</defs>
</svg>
