<svg width="40" height="40" viewBox="0 0 40 40" fill="none" xmlns="http://www.w3.org/2000/svg">
<g clip-path="url(#clip0_101_3)">
<path d="M24.8001 6.02343C23.484 3.82975 21.8685 1.83072 20 0.0833282C18.1315 1.83072 16.5159 3.82975 15.1999 6.02343H24.8001Z" fill="#0B8E6A"/>
<path d="M14.4574 7.35678C13.5648 9.05437 12.8555 10.8425 12.3408 12.6901H27.6592C27.1445 10.8425 26.4352 9.05437 25.5426 7.35678H14.4574Z" fill="#0B8E6A"/>
<path d="M29.0452 12.6901H38.6055C37.8441 10.7604 36.7868 8.96127 35.472 7.35678H27.0407C27.8857 9.06284 28.5573 10.8496 29.0452 12.6901Z" fill="#0B8E6A"/>
<path d="M27.0407 32.6901H35.4739C36.7887 31.0856 37.846 29.2861 38.6074 27.3568H29.0452C28.5573 29.1969 27.8857 30.9837 27.0407 32.6901Z" fill="#0B8E6A"/>
<path d="M12.9593 7.35678H4.52474C3.20964 8.96095 2.15267 10.7604 1.39128 12.6901H10.9548C11.4427 10.8496 12.1143 9.06284 12.9593 7.35678Z" fill="#0B8E6A"/>
<path d="M34.2747 6.02344C30.9792 2.65333 26.5957 0.560552 21.9033 0.115891C23.6273 1.88672 25.1162 3.8724 26.3333 6.02344H34.2747Z" fill="#0B8E6A"/>
<path d="M5.7233 34.0234C9.01953 37.3936 13.4033 39.4867 18.0967 39.9307C16.3727 38.1598 14.8838 36.1745 13.6667 34.0234H5.7233Z" fill="#0B8E6A"/>
<path d="M21.9033 39.9307C26.5957 39.4863 30.9792 37.3932 34.2747 34.0234H26.3333C25.1162 36.1745 23.6273 38.1598 21.9033 39.9307Z" fill="#0B8E6A"/>
<path d="M10.9547 27.3568H1.39388C2.15527 29.2861 3.21256 31.0856 4.52734 32.6901H12.9593C12.1143 30.9837 11.4427 29.1969 10.9547 27.3568Z" fill="#0B8E6A"/>
<path d="M18.0967 0.115891C13.4033 0.559901 9.01953 2.653 5.7233 6.02344H13.6667C14.8838 3.8724 16.3727 1.88672 18.0967 0.115891Z" fill="#0B8E6A"/>
<path d="M25.5426 32.6901C26.4352 30.9922 27.1445 29.2044 27.6592 27.3568H12.3408C12.8555 29.2044 13.5648 30.9922 14.4574 32.6901H25.5426Z" fill="#0B8E6A"/>
<path d="M15.1999 34.0234C16.5159 36.2168 18.1315 38.2161 20 39.9632C21.8685 38.2161 23.484 36.2168 24.8001 34.0234H15.1999Z" fill="#0B8E6A"/>
<path d="M39.0828 14.0234H0.917465C-0.305517 17.9297 -0.305517 22.1169 0.917465 26.0234H39.0828C40.3058 22.1169 40.3058 17.9297 39.0828 14.0234ZM10.6434 23.5319C10.5653 23.819 10.3065 24.0195 10.0089 24.0234H10.0001C9.70555 24.0234 9.44611 23.8301 9.36148 23.5479L8.00015 19.0101L6.63882 23.5479C6.55418 23.8301 6.29474 24.0234 6.00015 24.0234H5.99136C5.69416 24.0195 5.43504 23.819 5.35692 23.5319L3.35692 16.1986L4.64338 15.848L6.03075 20.9346L7.36408 16.4987C7.44872 16.2165 7.70816 16.0231 8.00275 16.0231C8.29735 16.0231 8.55711 16.2165 8.64142 16.4987L9.97476 20.9346L11.3621 15.848L12.6489 16.1986L10.6434 23.5319ZM22.6434 23.5319C22.5653 23.819 22.3065 24.0195 22.0089 24.0234H22.0001C21.7056 24.0234 21.4461 23.8301 21.3615 23.5479L20.0001 19.0101L18.6388 23.5479C18.5542 23.8301 18.2947 24.0234 18.0001 24.0234H17.9914C17.6942 24.0195 17.435 23.819 17.3569 23.5319L15.3569 16.1986L16.6434 15.848L18.0307 20.9346L19.3641 16.4987C19.4487 16.2165 19.7082 16.0231 20.0028 16.0231C20.2973 16.0231 20.5571 16.2165 20.6414 16.4987L21.9748 20.9346L23.3621 15.848L24.6489 16.1986L22.6434 23.5319ZM34.6434 23.5319C34.5653 23.819 34.3065 24.0195 34.0089 24.0234H34.0001C33.7056 24.0234 33.4461 23.8301 33.3615 23.5479L32.0001 19.0101L30.6388 23.5479C30.5542 23.8301 30.2947 24.0234 30.0001 24.0234H29.9914C29.6942 24.0195 29.435 23.819 29.3569 23.5319L27.3569 16.1986L28.6434 15.848L30.0307 20.9346L31.3641 16.4987C31.4487 16.2165 31.7082 16.0231 32.0028 16.0231C32.2973 16.0231 32.5571 16.2165 32.6414 16.4987L33.9748 20.9346L35.3621 15.848L36.6489 16.1986L34.6434 23.5319Z" fill="#0B8E6A"/>
</g>
<defs>
<clipPath id="clip0_101_3">
<rect width="40" height="40" fill="white"/>
</clipPath>
</defs>
</svg>
